<?xml version="1.0" encoding="UTF-8" standalone="no"?>
<!DOCTYPE svg PUBLIC "-//W3C//DTD SVG 1.1//EN"
 "http://www.w3.org/Graphics/SVG/1.1/DTD/svg11.dtd">
<!-- Generated by graphviz version 12.2.1 (20241206.2353)
 -->
<!-- Title: C:/Users/thanh/Documents/FPT/2_Module2_MCU/Media_player/include/example_class.h Pages: 1 -->
<svg width="322pt" height="132pt"
 viewBox="0.00 0.00 322.38 132.00" xmlns="http://www.w3.org/2000/svg" xmlns:xlink="http://www.w3.org/1999/xlink">
<g id="graph0" class="graph" transform="scale(1 1) rotate(0) translate(4 128)">
<title>C:/Users/thanh/Documents/FPT/2_Module2_MCU/Media_player/include/example_class.h</title>
<!-- Node1 -->
<g id="Node000001" class="node">
<title>Node1</title>
<g id="a_Node000001"><a xlink:title=" ">
<polygon fill="#999999" stroke="#666666" points="234.75,-124 77,-124 77,-80 234.75,-80 234.75,-124"/>
<text text-anchor="start" x="85" y="-110.5" font-family="Helvetica,sans-Serif" font-size="10.00">C:/Users/thanh/Documents</text>
<text text-anchor="start" x="85" y="-98.5" font-family="Helvetica,sans-Serif" font-size="10.00">/FPT/2_Module2_MCU/Media</text>
<text text-anchor="middle" x="155.88" y="-86.5" font-family="Helvetica,sans-Serif" font-size="10.00">_player/include/example_class.h</text>
</a>
</g>
</g>
<!-- Node2 -->
<g id="Node000002" class="node">
<title>Node2</title>
<g id="a_Node000002"><a xlink:href="main_8cpp.html" target="_top" xlink:title=" ">
<polygon fill="white" stroke="#666666" points="145.75,-44 0,-44 0,0 145.75,0 145.75,-44"/>
<text text-anchor="start" x="8" y="-30.5" font-family="Helvetica,sans-Serif" font-size="10.00">C:/Users/thanh/Documents</text>
<text text-anchor="start" x="8" y="-18.5" font-family="Helvetica,sans-Serif" font-size="10.00">/FPT/2_Module2_MCU/Media</text>
<text text-anchor="middle" x="72.88" y="-6.5" font-family="Helvetica,sans-Serif" font-size="10.00">_player/main/main.cpp</text>
</a>
</g>
</g>
<!-- Node1&#45;&gt;Node2 -->
<g id="edge1_Node000001_Node000002" class="edge">
<title>Node1&#45;&gt;Node2</title>
<g id="a_edge1_Node000001_Node000002"><a xlink:title=" ">
<path fill="none" stroke="#63b8ff" d="M124.9,-71.89C115.16,-62.74 104.58,-52.8 95.53,-44.29"/>
<polygon fill="#63b8ff" stroke="#63b8ff" points="122.41,-74.35 132.09,-78.65 127.2,-69.25 122.41,-74.35"/>
</a>
</g>
</g>
<!-- Node3 -->
<g id="Node000003" class="node">
<title>Node3</title>
<g id="a_Node000003"><a xlink:href="example__class_8cpp.html" target="_top" xlink:title=" ">
<polygon fill="white" stroke="#666666" points="314.38,-44 163.38,-44 163.38,0 314.38,0 314.38,-44"/>
<text text-anchor="start" x="171.38" y="-30.5" font-family="Helvetica,sans-Serif" font-size="10.00">C:/Users/thanh/Documents</text>
<text text-anchor="start" x="171.38" y="-18.5" font-family="Helvetica,sans-Serif" font-size="10.00">/FPT/2_Module2_MCU/Media</text>
<text text-anchor="middle" x="238.88" y="-6.5" font-family="Helvetica,sans-Serif" font-size="10.00">_player/src/example_class.cpp</text>
</a>
</g>
</g>
<!-- Node1&#45;&gt;Node3 -->
<g id="edge2_Node000001_Node000003" class="edge">
<title>Node1&#45;&gt;Node3</title>
<g id="a_edge2_Node000001_Node000003"><a xlink:title=" ">
<path fill="none" stroke="#63b8ff" d="M186.85,-71.89C196.59,-62.74 207.17,-52.8 216.22,-44.29"/>
<polygon fill="#63b8ff" stroke="#63b8ff" points="184.55,-69.25 179.66,-78.65 189.34,-74.35 184.55,-69.25"/>
</a>
</g>
</g>
</g>
</svg>
