<?xml version="1.0" encoding="UTF-8" standalone="no"?>
<!DOCTYPE svg PUBLIC "-//W3C//DTD SVG 1.1//EN"
 "http://www.w3.org/Graphics/SVG/1.1/DTD/svg11.dtd">
<!-- Generated by graphviz version 12.2.1 (20241206.2353)
 -->
<!-- Title: C:/Users/thanh/Documents/FPT/2_Module2_MCU/Media_player/main/main.cpp Pages: 1 -->
<svg width="176pt" height="120pt"
 viewBox="0.00 0.00 175.62 120.00" xmlns="http://www.w3.org/2000/svg" xmlns:xlink="http://www.w3.org/1999/xlink">
<g id="graph0" class="graph" transform="scale(1 1) rotate(0) translate(4 116)">
<title>C:/Users/thanh/Documents/FPT/2_Module2_MCU/Media_player/main/main.cpp</title>
<!-- Node1 -->
<g id="Node000001" class="node">
<title>Node1</title>
<g id="a_Node000001"><a xlink:title=" ">
<polygon fill="#999999" stroke="#666666" points="145.75,-112 0,-112 0,-68 145.75,-68 145.75,-112"/>
<text text-anchor="start" x="8" y="-98.5" font-family="Helvetica,sans-Serif" font-size="10.00">C:/Users/thanh/Documents</text>
<text text-anchor="start" x="8" y="-86.5" font-family="Helvetica,sans-Serif" font-size="10.00">/FPT/2_Module2_MCU/Media</text>
<text text-anchor="middle" x="72.88" y="-74.5" font-family="Helvetica,sans-Serif" font-size="10.00">_player/main/main.cpp</text>
</a>
</g>
</g>
<!-- Node2 -->
<g id="Node000002" class="node">
<title>Node2</title>
<g id="a_Node000002"><a xlink:title=" ">
<polygon fill="#e0e0e0" stroke="#999999" points="53.62,-26 0.12,-26 0.12,-6 53.62,-6 53.62,-26"/>
<text text-anchor="middle" x="26.88" y="-12.5" font-family="Helvetica,sans-Serif" font-size="10.00">iostream</text>
</a>
</g>
</g>
<!-- Node1&#45;&gt;Node2 -->
<g id="edge1_Node000001_Node000002" class="edge">
<title>Node1&#45;&gt;Node2</title>
<g id="a_edge1_Node000001_Node000002"><a xlink:title=" ">
<path fill="none" stroke="#63b8ff" d="M59.32,-67.79C52.86,-57.67 45.2,-45.68 38.94,-35.88"/>
<polygon fill="#63b8ff" stroke="#63b8ff" points="41.97,-34.13 33.64,-27.59 36.07,-37.9 41.97,-34.13"/>
</a>
</g>
</g>
<!-- Node3 -->
<g id="Node000003" class="node">
<title>Node3</title>
<g id="a_Node000003"><a xlink:href="example__class_8h.html" target="_top" xlink:title=" ">
<polygon fill="white" stroke="#666666" points="167.62,-32 72.12,-32 72.12,0 167.62,0 167.62,-32"/>
<text text-anchor="start" x="80.12" y="-18.5" font-family="Helvetica,sans-Serif" font-size="10.00">../include/example</text>
<text text-anchor="middle" x="119.88" y="-6.5" font-family="Helvetica,sans-Serif" font-size="10.00">_class.h</text>
</a>
</g>
</g>
<!-- Node1&#45;&gt;Node3 -->
<g id="edge2_Node000001_Node000003" class="edge">
<title>Node1&#45;&gt;Node3</title>
<g id="a_edge2_Node000001_Node000003"><a xlink:title=" ">
<path fill="none" stroke="#63b8ff" d="M86.72,-67.79C92.09,-59.56 98.28,-50.08 103.84,-41.56"/>
<polygon fill="#63b8ff" stroke="#63b8ff" points="106.64,-43.68 109.17,-33.39 100.78,-39.85 106.64,-43.68"/>
</a>
</g>
</g>
</g>
</svg>
